<svg height="16" width="16" xmlns="http://www.w3.org/2000/svg"><clipPath id="a"><path d="M13.053 4.554c1.941.785 3.287 2.472 3.287 4.433 0 .92-.301 1.779-.817 2.515v2.973a.524.524 0 01-.838.42l-1.849-1.387a6.543 6.543 0 01-2.215.381c-2.117 0-3.961-.99-4.95-2.454l.048.003c4.055 0 7.353-2.932 7.353-6.536 0-.117-.012-.232-.019-.348zM5.719 0c3.159 0 5.72 2.194 5.72 4.902s-2.561 4.902-5.72 4.902a6.54 6.54 0 01-2.215-.381l-1.848 1.386a.525.525 0 01-.839-.42V7.418C.301 6.68 0 5.823 0 4.902 0 2.194 2.56 0 5.72 0z"/></clipPath><g clip-path="url(#a)" transform="translate(0 .5)"><path d="M0 0h16.34v15H0z"/></g></svg>